<mxfile host="Electron" agent="Mozilla/5.0 (Windows NT 10.0; Win64; x64) AppleWebKit/537.36 (KHTML, like Gecko) draw.io/26.1.1 Chrome/132.0.6834.210 Electron/34.3.3 Safari/537.36" version="26.1.1">
  <diagram name="第 1 页" id="nJL3OnCREurlaBiW7HBn">
    <mxGraphModel dx="1925" dy="1989" grid="1" gridSize="10" guides="1" tooltips="1" connect="1" arrows="1" fold="1" page="1" pageScale="1" pageWidth="827" pageHeight="1169" math="0" shadow="0">
      <root>
        <mxCell id="0" />
        <mxCell id="1" parent="0" />
        <mxCell id="jgDv3YHpMnxB8IQ5l1lS-1" value="移动端" style="rounded=1;whiteSpace=wrap;html=1;fillColor=#1ba1e2;fontColor=#ffffff;strokeColor=#006EAF;" vertex="1" parent="1">
          <mxGeometry x="-180" y="-680" width="70" height="35" as="geometry" />
        </mxCell>
        <mxCell id="jgDv3YHpMnxB8IQ5l1lS-2" value="PC端" style="rounded=0;whiteSpace=wrap;html=1;direction=south;fillColor=#1ba1e2;fontColor=#ffffff;strokeColor=#006EAF;" vertex="1" parent="1">
          <mxGeometry x="-310" y="-722.5" width="60" height="120" as="geometry" />
        </mxCell>
        <mxCell id="jgDv3YHpMnxB8IQ5l1lS-3" value="" style="rounded=0;whiteSpace=wrap;html=1;direction=south;fillColor=#FFCE9F;strokeColor=#d79b00;" vertex="1" parent="1">
          <mxGeometry x="-440" y="-500" width="430" height="330" as="geometry" />
        </mxCell>
        <mxCell id="jgDv3YHpMnxB8IQ5l1lS-4" value="Poseidon Gateway" style="text;html=1;strokeColor=none;fillColor=none;align=center;verticalAlign=middle;whiteSpace=wrap;rounded=0;fontStyle=1;fontSize=13;" vertex="1" parent="1">
          <mxGeometry x="-340" y="-500" width="210" height="30" as="geometry" />
        </mxCell>
        <mxCell id="jgDv3YHpMnxB8IQ5l1lS-5" style="edgeStyle=orthogonalEdgeStyle;rounded=0;orthogonalLoop=1;jettySize=auto;html=1;exitX=0;exitY=0.25;exitDx=0;exitDy=0;" edge="1" parent="1" source="jgDv3YHpMnxB8IQ5l1lS-7" target="jgDv3YHpMnxB8IQ5l1lS-22">
          <mxGeometry relative="1" as="geometry">
            <Array as="points">
              <mxPoint x="120" y="-440" />
            </Array>
          </mxGeometry>
        </mxCell>
        <mxCell id="jgDv3YHpMnxB8IQ5l1lS-6" value="udp receive" style="edgeLabel;html=1;align=center;verticalAlign=middle;resizable=0;points=[];" vertex="1" connectable="0" parent="jgDv3YHpMnxB8IQ5l1lS-5">
          <mxGeometry x="0.0383" y="-1" relative="1" as="geometry">
            <mxPoint as="offset" />
          </mxGeometry>
        </mxCell>
        <mxCell id="jgDv3YHpMnxB8IQ5l1lS-7" value="" style="rounded=0;whiteSpace=wrap;html=1;" vertex="1" parent="1">
          <mxGeometry x="120" y="-470" width="190" height="140" as="geometry" />
        </mxCell>
        <mxCell id="jgDv3YHpMnxB8IQ5l1lS-8" style="edgeStyle=orthogonalEdgeStyle;rounded=0;orthogonalLoop=1;jettySize=auto;html=1;exitX=0.5;exitY=0;exitDx=0;exitDy=0;entryX=0.695;entryY=1.05;entryDx=0;entryDy=0;entryPerimeter=0;" edge="1" parent="1" source="jgDv3YHpMnxB8IQ5l1lS-10" target="jgDv3YHpMnxB8IQ5l1lS-7">
          <mxGeometry relative="1" as="geometry" />
        </mxCell>
        <mxCell id="jgDv3YHpMnxB8IQ5l1lS-9" value="服务注册" style="edgeLabel;html=1;align=center;verticalAlign=middle;resizable=0;points=[];" vertex="1" connectable="0" parent="jgDv3YHpMnxB8IQ5l1lS-8">
          <mxGeometry x="0.1772" y="-1" relative="1" as="geometry">
            <mxPoint as="offset" />
          </mxGeometry>
        </mxCell>
        <mxCell id="jgDv3YHpMnxB8IQ5l1lS-10" value="" style="rounded=0;whiteSpace=wrap;html=1;direction=south;" vertex="1" parent="1">
          <mxGeometry x="-570" y="-110" width="780" height="70" as="geometry" />
        </mxCell>
        <mxCell id="jgDv3YHpMnxB8IQ5l1lS-11" value="微服务" style="rounded=0;whiteSpace=wrap;html=1;fillColor=#60a917;fontColor=#ffffff;strokeColor=#2D7600;" vertex="1" parent="1">
          <mxGeometry x="-560" y="-90" width="140" height="30" as="geometry" />
        </mxCell>
        <mxCell id="jgDv3YHpMnxB8IQ5l1lS-12" value="微服务" style="rounded=0;whiteSpace=wrap;html=1;fillColor=#60a917;fontColor=#ffffff;strokeColor=#2D7600;" vertex="1" parent="1">
          <mxGeometry x="-405" y="-90" width="140" height="30" as="geometry" />
        </mxCell>
        <mxCell id="jgDv3YHpMnxB8IQ5l1lS-13" value="微服务" style="rounded=0;whiteSpace=wrap;html=1;fillColor=#60a917;fontColor=#ffffff;strokeColor=#2D7600;" vertex="1" parent="1">
          <mxGeometry x="-250" y="-90" width="140" height="30" as="geometry" />
        </mxCell>
        <mxCell id="jgDv3YHpMnxB8IQ5l1lS-14" value="微服务" style="rounded=0;whiteSpace=wrap;html=1;fillColor=#60a917;fontColor=#ffffff;strokeColor=#2D7600;" vertex="1" parent="1">
          <mxGeometry x="-90" y="-90" width="140" height="30" as="geometry" />
        </mxCell>
        <mxCell id="jgDv3YHpMnxB8IQ5l1lS-15" value="注册中心" style="rounded=0;whiteSpace=wrap;html=1;fillColor=#d5e8d4;strokeColor=#82b366;" vertex="1" parent="1">
          <mxGeometry x="160" y="-415" width="110" height="30" as="geometry" />
        </mxCell>
        <mxCell id="jgDv3YHpMnxB8IQ5l1lS-16" value="微服务" style="rounded=0;whiteSpace=wrap;html=1;fillColor=#60a917;fontColor=#ffffff;strokeColor=#2D7600;" vertex="1" parent="1">
          <mxGeometry x="60" y="-90" width="140" height="30" as="geometry" />
        </mxCell>
        <mxCell id="jgDv3YHpMnxB8IQ5l1lS-17" value="Nacos" style="text;html=1;strokeColor=none;fillColor=none;align=center;verticalAlign=middle;whiteSpace=wrap;rounded=0;fontStyle=1" vertex="1" parent="1">
          <mxGeometry x="170" y="-470" width="90" height="30" as="geometry" />
        </mxCell>
        <mxCell id="jgDv3YHpMnxB8IQ5l1lS-18" style="edgeStyle=orthogonalEdgeStyle;rounded=0;orthogonalLoop=1;jettySize=auto;html=1;exitX=1;exitY=0.75;exitDx=0;exitDy=0;" edge="1" parent="1" source="jgDv3YHpMnxB8IQ5l1lS-22">
          <mxGeometry relative="1" as="geometry">
            <mxPoint x="120" y="-421" as="targetPoint" />
          </mxGeometry>
        </mxCell>
        <mxCell id="jgDv3YHpMnxB8IQ5l1lS-19" value="udp ack" style="edgeLabel;html=1;align=center;verticalAlign=middle;resizable=0;points=[];" vertex="1" connectable="0" parent="jgDv3YHpMnxB8IQ5l1lS-18">
          <mxGeometry x="-0.0349" y="3" relative="1" as="geometry">
            <mxPoint as="offset" />
          </mxGeometry>
        </mxCell>
        <mxCell id="jgDv3YHpMnxB8IQ5l1lS-20" style="edgeStyle=orthogonalEdgeStyle;rounded=0;orthogonalLoop=1;jettySize=auto;html=1;exitX=0;exitY=0.5;exitDx=0;exitDy=0;entryX=0.114;entryY=0.086;entryDx=0;entryDy=0;entryPerimeter=0;" edge="1" parent="1" source="jgDv3YHpMnxB8IQ5l1lS-22" target="jgDv3YHpMnxB8IQ5l1lS-29">
          <mxGeometry relative="1" as="geometry" />
        </mxCell>
        <mxCell id="jgDv3YHpMnxB8IQ5l1lS-21" value="更新" style="edgeLabel;html=1;align=center;verticalAlign=middle;resizable=0;points=[];" vertex="1" connectable="0" parent="jgDv3YHpMnxB8IQ5l1lS-20">
          <mxGeometry x="-0.4253" y="-1" relative="1" as="geometry">
            <mxPoint as="offset" />
          </mxGeometry>
        </mxCell>
        <mxCell id="jgDv3YHpMnxB8IQ5l1lS-22" value="&lt;div&gt;&lt;pre style=&quot;font-family:&#39;JetBrains Mono&#39;,monospace;font-size:10.5pt;&quot;&gt;PushReceiverTask 订阅服务任务&lt;/pre&gt;&lt;/div&gt;" style="rounded=1;whiteSpace=wrap;html=1;" vertex="1" parent="1">
          <mxGeometry x="-325" y="-450" width="215" height="40" as="geometry" />
        </mxCell>
        <mxCell id="jgDv3YHpMnxB8IQ5l1lS-23" style="edgeStyle=orthogonalEdgeStyle;rounded=0;orthogonalLoop=1;jettySize=auto;html=1;exitX=1;exitY=0.5;exitDx=0;exitDy=0;entryX=0;entryY=0.75;entryDx=0;entryDy=0;" edge="1" parent="1" source="jgDv3YHpMnxB8IQ5l1lS-28" target="jgDv3YHpMnxB8IQ5l1lS-7">
          <mxGeometry relative="1" as="geometry" />
        </mxCell>
        <mxCell id="jgDv3YHpMnxB8IQ5l1lS-24" value="&lt;div&gt;&lt;pre style=&quot;font-family:&#39;JetBrains Mono&#39;,monospace;font-size:10.5pt;&quot;&gt;&lt;/pre&gt;&lt;/div&gt;" style="edgeLabel;html=1;align=center;verticalAlign=middle;resizable=0;points=[];" vertex="1" connectable="0" parent="jgDv3YHpMnxB8IQ5l1lS-23">
          <mxGeometry x="-0.0174" y="-3" relative="1" as="geometry">
            <mxPoint as="offset" />
          </mxGeometry>
        </mxCell>
        <mxCell id="jgDv3YHpMnxB8IQ5l1lS-25" value="定时 请求 nacos api&amp;nbsp;/instance/list&amp;nbsp; 拉取" style="edgeLabel;html=1;align=center;verticalAlign=middle;resizable=0;points=[];" vertex="1" connectable="0" parent="jgDv3YHpMnxB8IQ5l1lS-23">
          <mxGeometry x="-0.1565" y="-4" relative="1" as="geometry">
            <mxPoint as="offset" />
          </mxGeometry>
        </mxCell>
        <mxCell id="jgDv3YHpMnxB8IQ5l1lS-26" style="edgeStyle=orthogonalEdgeStyle;rounded=0;orthogonalLoop=1;jettySize=auto;html=1;exitX=0;exitY=0.5;exitDx=0;exitDy=0;entryX=0.209;entryY=-0.086;entryDx=0;entryDy=0;entryPerimeter=0;" edge="1" parent="1" source="jgDv3YHpMnxB8IQ5l1lS-28" target="jgDv3YHpMnxB8IQ5l1lS-29">
          <mxGeometry relative="1" as="geometry" />
        </mxCell>
        <mxCell id="jgDv3YHpMnxB8IQ5l1lS-27" value="更新" style="edgeLabel;html=1;align=center;verticalAlign=middle;resizable=0;points=[];" vertex="1" connectable="0" parent="jgDv3YHpMnxB8IQ5l1lS-26">
          <mxGeometry x="-0.2269" relative="1" as="geometry">
            <mxPoint as="offset" />
          </mxGeometry>
        </mxCell>
        <mxCell id="jgDv3YHpMnxB8IQ5l1lS-28" value="&lt;div&gt;&lt;div&gt;&lt;pre style=&quot;font-family:&#39;JetBrains Mono&#39;,monospace;font-size:10.5pt;&quot;&gt;&lt;/pre&gt;&lt;/div&gt;&lt;pre style=&quot;font-family:&#39;JetBrains Mono&#39;,monospace;font-size:10.5pt;&quot;&gt;UpdateTask 更新服务任务&lt;/pre&gt;&lt;/div&gt;" style="rounded=1;whiteSpace=wrap;html=1;" vertex="1" parent="1">
          <mxGeometry x="-325" y="-385" width="215" height="40" as="geometry" />
        </mxCell>
        <mxCell id="jgDv3YHpMnxB8IQ5l1lS-29" value="&lt;div&gt;&lt;pre style=&quot;font-family:&#39;JetBrains Mono&#39;,monospace;font-size:10.5pt;&quot;&gt;Disk   /Users/user/nacos/naming/&lt;/pre&gt;&lt;/div&gt;" style="rounded=0;whiteSpace=wrap;html=1;align=left;" vertex="1" parent="1">
          <mxGeometry x="-440" y="-325" width="430" height="35" as="geometry" />
        </mxCell>
        <mxCell id="jgDv3YHpMnxB8IQ5l1lS-30" value="&lt;div style=&quot;font-family: Consolas, &amp;quot;Courier New&amp;quot;, monospace; font-size: 14px; line-height: 19px;&quot;&gt;Memory serverMap&lt;/div&gt;&lt;div&gt;&lt;pre style=&quot;font-family:&#39;JetBrains Mono&#39;,monospace;font-size:10.5pt;&quot;&gt;&lt;/pre&gt;&lt;/div&gt;" style="rounded=0;whiteSpace=wrap;html=1;align=left;" vertex="1" parent="1">
          <mxGeometry x="-440" y="-290" width="430" height="35" as="geometry" />
        </mxCell>
        <mxCell id="jgDv3YHpMnxB8IQ5l1lS-31" value="LoadBalancer负载均衡" style="rounded=1;whiteSpace=wrap;html=1;" vertex="1" parent="1">
          <mxGeometry x="-360" y="-240" width="280" height="60" as="geometry" />
        </mxCell>
        <mxCell id="jgDv3YHpMnxB8IQ5l1lS-32" value="" style="shape=flexArrow;endArrow=classic;html=1;rounded=0;entryX=0;entryY=0.538;entryDx=0;entryDy=0;entryPerimeter=0;" edge="1" parent="1" target="jgDv3YHpMnxB8IQ5l1lS-10">
          <mxGeometry width="50" height="50" relative="1" as="geometry">
            <mxPoint x="-210" y="-170" as="sourcePoint" />
            <mxPoint x="-210" y="-120" as="targetPoint" />
          </mxGeometry>
        </mxCell>
        <mxCell id="jgDv3YHpMnxB8IQ5l1lS-33" value="" style="endArrow=classic;html=1;rounded=0;exitX=1;exitY=0.5;exitDx=0;exitDy=0;entryX=0.5;entryY=0;entryDx=0;entryDy=0;" edge="1" parent="1" source="jgDv3YHpMnxB8IQ5l1lS-2" target="jgDv3YHpMnxB8IQ5l1lS-4">
          <mxGeometry width="50" height="50" relative="1" as="geometry">
            <mxPoint x="-260" y="-540" as="sourcePoint" />
            <mxPoint x="-190" y="-540" as="targetPoint" />
          </mxGeometry>
        </mxCell>
        <mxCell id="jgDv3YHpMnxB8IQ5l1lS-34" value="" style="endArrow=classic;html=1;rounded=0;exitX=0.5;exitY=1;exitDx=0;exitDy=0;entryX=0.538;entryY=0.067;entryDx=0;entryDy=0;entryPerimeter=0;" edge="1" parent="1" source="jgDv3YHpMnxB8IQ5l1lS-1" target="jgDv3YHpMnxB8IQ5l1lS-4">
          <mxGeometry width="50" height="50" relative="1" as="geometry">
            <mxPoint x="-130" y="-570" as="sourcePoint" />
            <mxPoint x="-60" y="-570" as="targetPoint" />
          </mxGeometry>
        </mxCell>
      </root>
    </mxGraphModel>
  </diagram>
</mxfile>
